<?xml version="1.0" encoding="UTF-8"?>
<svg version="1.1" xmlns="http://www.w3.org/2000/svg" width="512" height="512">
<path d="M0 0 C1.4540625 1.04414062 1.4540625 1.04414062 2.9375 2.109375 C18.45374759 13.50411933 33.54020932 26.29136905 46 41 C46.48581543 41.5681543 46.97163086 42.13630859 47.47216797 42.72167969 C88.89929914 91.40397788 108.866311 154.72187619 104.78173828 218.40283203 C101.27090751 260.3538661 87.70874318 302.59046505 63 337 C62.33677734 337.92594971 62.33677734 337.92594971 61.66015625 338.87060547 C55.68983001 347.15665784 49.45988932 354.97808367 42.4453125 362.40234375 C40.40362188 364.57123235 38.47229564 366.7790487 36.5625 369.0625 C15.3991532 393.33515368 -14.69404437 411.46725044 -44 424 C-44.70560059 424.30196289 -45.41120117 424.60392578 -46.13818359 424.91503906 C-61.03788749 431.17473791 -61.03788749 431.17473791 -69 430 C-72.709949 428.3869787 -74.94831039 426.48787234 -77 423 C-78.03779215 419.00853638 -78.10988486 415.24957166 -78.08178711 411.13696289 C-78.07872055 410.46621735 -78.07565399 409.7954718 -78.07249451 409.10440063 C-78.06536419 407.65303911 -78.05598725 406.20168723 -78.04459953 404.75035286 C-78.02709606 402.43996156 -78.01687192 400.12964064 -78.00868225 397.81919861 C-77.98434644 391.2513869 -77.94906593 384.6836689 -77.90405273 378.1159668 C-77.87697263 374.09015468 -77.86012217 370.06439799 -77.84918404 366.03851128 C-77.84305054 364.51775517 -77.83314448 362.99700868 -77.81910515 361.47630501 C-77.65452821 343.47106189 -79.26690124 326.08358146 -90 311 C-90.55558594 310.45472656 -91.11117188 309.90945313 -91.68359375 309.34765625 C-93 308 -93 308 -93 306 C-91.45505859 305.74476563 -91.45505859 305.74476563 -89.87890625 305.484375 C-66.16412201 301.4845957 -35.99408162 296.29373655 -18.33203125 278.30078125 C-17 277 -17 277 -15 277 C-14.34 275.68 -13.68 274.36 -13 273 C-12.34 273 -11.68 273 -11 273 C-10.73445313 272.41863281 -10.46890625 271.83726562 -10.1953125 271.23828125 C-8.96238292 268.92956017 -7.56558091 267.18081284 -5.875 265.1875 C13.41802455 240.6290875 18.37385817 205.68999618 15.2890625 175.32714844 C12.95777341 156.55869608 5.55986 137.55986 -8 124 C-7.75029362 120.94109683 -7.28688688 118.10358903 -6.515625 115.13671875 C-2.17958571 98.21959575 -4.03920732 81.31260726 -9.1953125 64.828125 C-10 62 -10 62 -10 59 C-29.66873871 57.79579151 -52.02729419 67.24418288 -67.59033203 78.94799805 C-72.61340038 82.64756083 -75.83917334 84.59176732 -82.1640625 83.66015625 C-84.32828272 83.17235206 -86.48261914 82.63869991 -88.625 82.0625 C-104.04358429 78.335868 -118.88131775 76.65056807 -134.72949219 76.73925781 C-136.99962032 76.7499982 -139.26895764 76.73926649 -141.5390625 76.7265625 C-155.3177566 76.71041244 -168.4170849 77.87119686 -181.72290039 81.56567383 C-190.77340761 83.93647046 -197.70980334 85.26808925 -206.08227539 80.45947266 C-209.36892049 78.27700314 -212.55607509 75.986046 -215.71240234 73.61962891 C-219.22882417 71.12998724 -222.96510187 69.28753385 -226.875 67.5 C-227.56948242 67.1812793 -228.26396484 66.86255859 -228.97949219 66.53417969 C-240.32127921 61.4963788 -251.59072598 59 -264 59 C-264.268125 60.216875 -264.53625 61.43375 -264.8125 62.6875 C-265.44120759 65.53464724 -266.08933067 68.3746419 -266.765625 71.2109375 C-270.22604484 85.76505626 -270.79528512 98.58638304 -267.75390625 113.23828125 C-267.50511719 114.47964844 -267.25632812 115.72101563 -267 117 C-266.74347656 118.24265625 -266.48695313 119.4853125 -266.22265625 120.765625 C-266 124 -266 124 -267.1171875 125.87109375 C-267.69726562 126.38800781 -268.27734375 126.90492188 -268.875 127.4375 C-285.2007343 144.31830927 -290.41642814 169.54728634 -290.1484375 192.24609375 C-288.92177789 223.26766972 -281.76934698 253.57162494 -259 276 C-237.07718532 295.64284195 -209.30373529 301.74925587 -181 306 C-182.42532837 309.11746699 -184.19548851 311.56500981 -186.3125 314.25 C-191.2319059 321.13100616 -194.15515132 329.9653666 -195.328125 338.34375 C-196 340 -196 340 -198.1171875 341.1953125 C-214.02573741 346.55825142 -230.23636357 348.68594102 -245.8515625 341.1796875 C-256.73693085 335.2026307 -264.06209037 325.83619467 -270.45703125 315.40234375 C-272.33344591 312.48083738 -274.39232923 310.28966214 -277 308 C-277.54914063 307.44828125 -278.09828125 306.8965625 -278.6640625 306.328125 C-285.87374294 299.38546976 -294.78851035 295.5274784 -304.796875 294.9140625 C-307.78689159 295.03069435 -310.28010446 295.78320462 -313 297 C-312.9209428 299.68794472 -312.50140784 301.45632231 -310.65625 303.45703125 C-308.21699149 305.55811983 -305.70171016 307.50325183 -303.07421875 309.36328125 C-291.22375497 317.79397192 -284.13048418 329.24297165 -278.00390625 342.171875 C-270.95705811 357.01819734 -262.47777052 364.99824265 -246.8125 370.8125 C-239.23956951 373.48682631 -232.0798798 374.18084876 -224.125 374.1875 C-223.3928125 374.19974609 -222.660625 374.21199219 -221.90625 374.22460938 C-213.53950283 374.2455962 -205.2840726 373.06152085 -197 372 C-196.78024922 378.56478793 -196.58555021 385.12998222 -196.40795898 391.69604492 C-196.34467023 393.92798534 -196.27572305 396.15977297 -196.20092773 398.39135742 C-196.0941883 401.60571887 -196.00805021 404.82008664 -195.92578125 408.03515625 C-195.88842361 409.02709488 -195.85106598 410.01903351 -195.81257629 411.04103088 C-195.6872345 416.86289404 -196.1381884 420.88309601 -199 426 C-202.28691737 429.05213756 -204.44661122 429.91074374 -208.875 430.625 C-234.77390979 429.17192585 -265.19993834 407.69446064 -285 392 C-285.8353125 391.35675781 -286.670625 390.71351563 -287.53125 390.05078125 C-337.22842664 351.28383808 -369.01154379 293.89262783 -377.45703125 231.60546875 C-377.64377576 230.07100193 -377.82463526 228.53580896 -378 227 C-378.0942627 226.19868652 -378.18852539 225.39737305 -378.28564453 224.57177734 C-379.17059976 216.14491391 -379.2433078 207.71392773 -379.25 199.25 C-379.25067474 198.47821411 -379.25134949 197.70642822 -379.25204468 196.91125488 C-379.23384728 183.74042316 -378.41324738 170.97267618 -376 158 C-375.82839355 157.05801758 -375.65678711 156.11603516 -375.47998047 155.14550781 C-367.45632664 112.28098361 -348.07067398 72.52604947 -319 40 C-318.53174805 39.47535156 -318.06349609 38.95070313 -317.58105469 38.41015625 C-308.66344733 28.4652308 -299.54588683 19.23858222 -289 11 C-288.40123047 10.53013672 -287.80246094 10.06027344 -287.18554688 9.57617188 C-278.42582348 2.74127071 -269.51013452 -3.44342961 -259.84912109 -8.93212891 C-258.03936448 -9.97726693 -256.2635213 -11.06543042 -254.48828125 -12.16796875 C-178.97082111 -58.11294247 -71.04940012 -51.26860122 0 0 Z " fill="#171515" transform="translate(393,62)"/>
<path d="M0 0 C5.5952381 0.5952381 5.5952381 0.5952381 8 3 C8.125 6.125 8.125 6.125 8 9 C5.75 9.75 5.75 9.75 3 10 C0.6875 8.375 0.6875 8.375 -1 6 C-1.3125 3.3125 -1.3125 3.3125 -1 1 C-0.67 0.67 -0.34 0.34 0 0 Z " fill="#171414" transform="translate(131,397)"/>
<path d="M0 0 C0.33 1.65 0.66 3.3 1 5 C-1.125 6.625 -1.125 6.625 -4 8 C-7.3125 7.1875 -7.3125 7.1875 -10 6 C-9.75 3.625 -9.75 3.625 -9 1 C-5.89666169 -1.43833725 -3.67370652 -1.02047403 0 0 Z " fill="#171515" transform="translate(194,409)"/>
<path d="M0 0 C0.66 0.33 1.32 0.66 2 1 C2.1875 3.375 2.1875 3.375 2 6 C-1.23253796 8.15502531 -2.25150923 8.46856135 -6 8 C-7.875 6.75 -7.875 6.75 -9 5 C-8.8125 2.875 -8.8125 2.875 -8 1 C-5.26094655 -0.36952673 -3.02912668 -0.12621361 0 0 Z " fill="#171515" transform="translate(174,411)"/>
<path d="M0 0 C6.41868512 -0.3633218 6.41868512 -0.3633218 9 1.25 C10 3 10 3 9.75 5.125 C9 7 9 7 8 8 C1.4 7.4 1.4 7.4 -1 5 C-0.625 2.375 -0.625 2.375 0 0 Z " fill="#171515" transform="translate(147,408)"/>
<path d="M0 0 C3.65316671 1.24976756 4.78065836 1.67098753 7 5 C6.625 7.1875 6.625 7.1875 6 9 C4.68 9.33 3.36 9.66 2 10 C0.68 8.35 -0.64 6.7 -2 5 C-1.34 3.35 -0.68 1.7 0 0 Z " fill="#171515" transform="translate(120,383)"/>
<path d="M0 0 C2.375 0.3125 2.375 0.3125 5 1 C7 4 7 4 6.625 6.1875 C6.41875 6.785625 6.2125 7.38375 6 8 C1.25 7.25 1.25 7.25 -1 5 C-0.625 2.375 -0.625 2.375 0 0 Z " fill="#171414" transform="translate(110,371)"/>
<path d="M0 0 C1.65 0 3.3 0 5 0 C5.33 1.65 5.66 3.3 6 5 C4.1875 5.625 4.1875 5.625 2 6 C1.01 5.34 0.02 4.68 -1 4 C-0.67 2.68 -0.34 1.36 0 0 Z " fill="#161414" transform="translate(100,363)"/>
</svg>
